<svg width="80" height="80" viewBox="0 0 80 80" fill="none" xmlns="http://www.w3.org/2000/svg">
<g clip-path="url(#clip0_213_3928)">
<path d="M80 40C80 17.9086 62.0914 0 40 0C17.9086 0 0 17.9086 0 40C0 62.0914 17.9086 80 40 80C62.0914 80 80 62.0914 80 40Z" fill="#E9E07A"/>
<path fill-rule="evenodd" clip-rule="evenodd" d="M40 23.127C30.6803 23.127 23.125 30.6823 23.125 40.002C23.125 49.3216 30.6803 56.877 40 56.877C49.3197 56.877 56.875 49.3216 56.875 40.002C56.875 30.6823 49.3197 23.127 40 23.127ZM40 55.002C31.7153 55.002 25 48.2857 25 40.002C25 31.7182 31.7153 25.002 40 25.002C48.2847 25.002 55 31.7182 55 40.002C55 48.2857 48.2847 55.002 40 55.002Z" fill="#19160D"/>
<path fill-rule="evenodd" clip-rule="evenodd" d="M69.0625 39.0625H59.6875C59.1691 39.0625 58.75 39.4816 58.75 40C58.75 40.5184 59.1691 40.9375 59.6875 40.9375H69.0625C69.5809 40.9375 70 40.5184 70 40C70 39.4816 69.5809 39.0625 69.0625 39.0625Z" fill="#19160D"/>
<path fill-rule="evenodd" clip-rule="evenodd" d="M20.7408 44.1897L17.1192 45.16C16.6186 45.296 16.3214 45.8097 16.4564 46.3103C16.5904 46.81 17.1033 47.1072 17.6048 46.9713L21.2264 46.001C21.7261 45.8669 22.0233 45.355 21.8892 44.8525C21.7551 44.3528 21.2404 44.0556 20.7408 44.1897Z" fill="#19160D"/>
<path fill-rule="evenodd" clip-rule="evenodd" d="M56.2375 30.625C56.4972 31.0741 57.07 31.2278 57.5191 30.9672L65.6378 26.2797C66.0869 26.0219 66.2406 25.4481 65.98 25C65.7222 24.5509 65.1484 24.3972 64.7003 24.6578L56.5816 29.3453C56.1325 29.605 55.9797 30.1759 56.2375 30.625Z" fill="#19160D"/>
<path fill-rule="evenodd" clip-rule="evenodd" d="M26.7421 53.2591C26.3764 52.8925 25.783 52.8944 25.4164 53.2591L22.7652 55.9103C22.3986 56.2769 22.3996 56.8713 22.7661 57.236C23.1317 57.6025 23.7242 57.6025 24.0908 57.236L26.7421 54.5847C27.1086 54.22 27.1086 53.6247 26.7421 53.2591Z" fill="#19160D"/>
<path fill-rule="evenodd" clip-rule="evenodd" d="M49.3754 23.7625C49.8245 24.0203 50.3973 23.8684 50.657 23.4184L55.3445 15.2997C55.6042 14.8506 55.4504 14.2769 55.0004 14.0191C54.5523 13.7594 53.9804 13.9131 53.7207 14.3612L49.0342 22.4819C48.7736 22.9309 48.9273 23.5019 49.3754 23.7625Z" fill="#19160D"/>
<path fill-rule="evenodd" clip-rule="evenodd" d="M35.1474 58.1107C34.6486 57.9766 34.1349 58.2757 33.9989 58.7735L33.0286 62.395C32.8946 62.8966 33.1936 63.4094 33.6933 63.5435C34.193 63.6794 34.7058 63.3822 34.8399 62.8807L35.8102 59.2591C35.9461 58.7613 35.6489 58.2466 35.1474 58.1107Z" fill="#19160D"/>
<path fill-rule="evenodd" clip-rule="evenodd" d="M40 21.25C40.5194 21.25 40.9385 20.8309 40.9394 20.3125V10.9375C40.9394 10.4191 40.5204 10 40 10C39.4835 10 39.0644 10.4191 39.0635 10.9375L39.0644 20.3125C39.0644 20.8309 39.4835 21.25 40 21.25Z" fill="#19160D"/>
<path fill-rule="evenodd" clip-rule="evenodd" d="M46.002 58.7735C45.8698 58.2738 45.356 57.9766 44.8535 58.1107C44.3538 58.2447 44.0585 58.7585 44.1907 59.2591L45.161 62.8807C45.296 63.3822 45.8107 63.6775 46.3113 63.5435C46.812 63.4094 47.1073 62.8975 46.9723 62.395L46.002 58.7735Z" fill="#19160D"/>
<path fill-rule="evenodd" clip-rule="evenodd" d="M29.3473 23.4175C29.6051 23.8666 30.1788 24.0203 30.6251 23.7616C31.0751 23.5019 31.2298 22.93 30.9701 22.48L26.2826 14.3612C26.0238 13.9131 25.4501 13.7594 25.0001 14.0191C24.5529 14.2769 24.3992 14.8506 24.6579 15.2987L29.3473 23.4175Z" fill="#19160D"/>
<path fill-rule="evenodd" clip-rule="evenodd" d="M54.5858 53.2572C54.2221 52.8925 53.6277 52.8925 53.2602 53.2572C52.8936 53.6238 52.8964 54.2182 53.2602 54.5828L55.9114 57.2341C56.2789 57.6025 56.8724 57.5988 57.238 57.2341C57.6046 56.8675 57.6046 56.2769 57.2371 55.9085L54.5858 53.2572Z" fill="#19160D"/>
<path fill-rule="evenodd" clip-rule="evenodd" d="M14.3637 26.2797L22.4843 30.9653C22.9315 31.225 23.5043 31.0713 23.7621 30.625C24.0218 30.175 23.8699 29.6031 23.4208 29.3434L15.3012 24.6559C14.853 24.3953 14.2793 24.55 14.0196 25C13.7627 25.4472 13.9155 26.02 14.3637 26.2797Z" fill="#19160D"/>
<path fill-rule="evenodd" clip-rule="evenodd" d="M58.7753 46.0001L62.3968 46.9704C62.8984 47.1063 63.4112 46.8054 63.5453 46.3057C63.6803 45.806 63.384 45.2932 62.8824 45.1591L59.2609 44.1888C58.7631 44.0529 58.2474 44.3501 58.1124 44.8516C57.9774 45.3523 58.2774 45.8651 58.7753 46.0001Z" fill="#19160D"/>
<path fill-rule="evenodd" clip-rule="evenodd" d="M21.25 39.9999C21.2509 39.4796 20.8328 39.0624 20.3144 39.0605L10.9375 39.0624C10.42 39.0624 10 39.4796 10 39.9999C10.0009 40.5165 10.42 40.9374 10.9384 40.9374L20.3144 40.9355C20.8309 40.9355 21.2509 40.5165 21.25 39.9999Z" fill="#19160D"/>
<path fill-rule="evenodd" clip-rule="evenodd" d="M59.2607 35.8084L62.8823 34.8381C63.3838 34.704 63.6791 34.1884 63.5441 33.6877C63.411 33.1899 62.8991 32.8927 62.3966 33.0268L58.7751 33.9971C58.2754 34.1293 57.9782 34.6449 58.1123 35.1456C58.2444 35.6452 58.761 35.9406 59.2607 35.8084Z" fill="#19160D"/>
<path d="M40.0005 55.0001C48.2848 55.0001 55.0005 48.2843 55.0005 40.0001C55.0005 31.7158 48.2848 25.0001 40.0005 25.0001C31.7162 25.0001 25.0005 31.7158 25.0005 40.0001C25.0005 48.2843 31.7162 55.0001 40.0005 55.0001Z" fill="#E9E07A"/>
<path fill-rule="evenodd" clip-rule="evenodd" d="M23.7623 49.375C23.5045 48.925 22.9317 48.7703 22.4826 49.0291L14.363 53.7185C13.9148 53.9781 13.7592 54.55 14.0189 55C14.2786 55.4472 14.8523 55.601 15.3005 55.3422L23.4192 50.6528C23.8664 50.395 24.022 49.8241 23.7623 49.375Z" fill="#19160D"/>
<path fill-rule="evenodd" clip-rule="evenodd" d="M53.2598 26.7391C53.6245 27.1075 54.2179 27.1038 54.5854 26.7391L57.2367 24.0879C57.6042 23.7213 57.6023 23.1288 57.2348 22.7622C56.871 22.3957 56.2776 22.3957 55.911 22.7622L53.2598 25.4135C52.8923 25.7782 52.8942 26.3735 53.2598 26.7391Z" fill="#19160D"/>
<path fill-rule="evenodd" clip-rule="evenodd" d="M30.6248 56.2375C30.1757 55.9778 29.6048 56.1316 29.3451 56.5778L24.6576 64.7003C24.3998 65.1475 24.5498 65.7203 24.9998 65.98C25.4489 66.236 26.0217 66.0822 26.2814 65.636L30.967 57.5153C31.2257 57.0691 31.0748 56.4963 30.6248 56.2375Z" fill="#19160D"/>
<path fill-rule="evenodd" clip-rule="evenodd" d="M44.8545 21.8875C45.3523 22.0234 45.8651 21.7225 46.0029 21.2247L46.9732 17.6031C47.1073 17.1016 46.8082 16.5869 46.3085 16.4547C45.8107 16.3188 45.296 16.6159 45.162 17.1175L44.1917 20.7391C44.0539 21.2369 44.3548 21.7516 44.8545 21.8875Z" fill="#19160D"/>
<path fill-rule="evenodd" clip-rule="evenodd" d="M40 58.75C39.4816 58.7481 39.0644 59.1672 39.0625 59.6856L39.0644 69.0644C39.0644 69.5791 39.4797 70 40 70C40.5184 70 40.9375 69.5791 40.9384 69.0625L40.9356 59.6856C40.9356 59.1691 40.5203 58.75 40 58.75Z" fill="#19160D"/>
<path fill-rule="evenodd" clip-rule="evenodd" d="M33.9997 21.2247C34.13 21.7244 34.6475 22.0216 35.1482 21.8875C35.6469 21.7553 35.9413 21.2397 35.811 20.7391L34.8407 17.1175C34.7047 16.6159 34.191 16.3188 33.6903 16.4547C33.1925 16.5888 32.8935 17.1006 33.0294 17.6031L33.9997 21.2247Z" fill="#19160D"/>
<path fill-rule="evenodd" clip-rule="evenodd" d="M50.6529 56.5806C50.3951 56.1334 49.8251 55.9778 49.3751 56.2375C48.926 56.4953 48.7742 57.0672 49.031 57.5172L53.7223 65.6359C53.9801 66.085 54.5501 66.2406 55.0001 65.98C55.4492 65.7203 55.602 65.1466 55.3442 64.6984L50.6529 56.5806Z" fill="#19160D"/>
<path fill-rule="evenodd" clip-rule="evenodd" d="M25.4153 26.739C25.7781 27.1093 26.3743 27.1056 26.7409 26.739C27.1075 26.3762 27.1037 25.7828 26.7409 25.4134L24.0896 22.7621C23.7212 22.3956 23.1287 22.3975 22.7631 22.764C22.3975 23.1287 22.3956 23.7212 22.764 24.0878L25.4153 26.739Z" fill="#19160D"/>
<path fill-rule="evenodd" clip-rule="evenodd" d="M65.6387 53.7185L57.5172 49.0329C57.069 48.775 56.4981 48.925 56.2393 49.3769C55.9787 49.8241 56.1343 50.395 56.5806 50.6547L64.7031 55.3422C65.1503 55.6 65.7212 55.45 65.9809 55C66.2387 54.55 66.085 53.9782 65.6387 53.7185Z" fill="#19160D"/>
<path fill-rule="evenodd" clip-rule="evenodd" d="M21.2255 33.9982L17.603 33.0269C17.1005 32.8929 16.5877 33.1919 16.4546 33.6916C16.3196 34.1894 16.6149 34.7041 17.1174 34.84L20.7389 35.8085C21.2367 35.9454 21.7524 35.6454 21.8874 35.1457C22.0233 34.6497 21.7233 34.1369 21.2255 33.9982Z" fill="#19160D"/>
<path fill-rule="evenodd" clip-rule="evenodd" d="M40 28.7519C39.4816 28.7519 39.0625 29.171 39.0625 29.6894C39.0625 30.2078 39.4816 30.6269 40 30.6269C45.1769 30.6269 49.375 34.8241 49.375 40.0019C49.375 40.5203 49.7941 40.9394 50.3125 40.9394C50.8309 40.9394 51.25 40.5203 51.25 40.0019C51.25 33.7891 46.2128 28.7519 40 28.7519Z" fill="#19160D"/>
</g>
<defs>
<clipPath id="clip0_213_3928">
<rect width="80" height="80" fill="white"/>
</clipPath>
</defs>
</svg>
