<svg width="80" height="80" viewBox="0 0 80 80" fill="none" xmlns="http://www.w3.org/2000/svg">
<circle cx="40" cy="40" r="40" fill="#810303"/>
<path fill-rule="evenodd" clip-rule="evenodd" d="M40 24.1815C31.2628 24.1815 24.1797 31.2646 24.1797 40.0018C24.1797 48.739 31.2628 55.8221 40 55.8221C48.7372 55.8221 55.8203 48.739 55.8203 40.0018C55.8203 31.2646 48.7372 24.1815 40 24.1815ZM40 54.0643C32.2331 54.0643 25.9375 47.7678 25.9375 40.0018C25.9375 32.2358 32.2331 25.9393 40 25.9393C47.7669 25.9393 54.0625 32.2358 54.0625 40.0018C54.0625 47.7678 47.7669 54.0643 40 54.0643Z" fill="#E9E07A"/>
<path fill-rule="evenodd" clip-rule="evenodd" d="M67.2461 39.1211H58.457C57.971 39.1211 57.5781 39.514 57.5781 40C57.5781 40.486 57.971 40.8789 58.457 40.8789H67.2461C67.7321 40.8789 68.125 40.486 68.125 40C68.125 39.514 67.7321 39.1211 67.2461 39.1211Z" fill="#E9E07A"/>
<path fill-rule="evenodd" clip-rule="evenodd" d="M21.9446 43.9279L18.5494 44.8375C18.08 44.965 17.8014 45.4466 17.928 45.916C18.0537 46.3844 18.5344 46.663 19.0046 46.5356L22.3999 45.6259C22.8683 45.5002 23.1469 45.0203 23.0212 44.5493C22.8956 44.0808 22.413 43.8022 21.9446 43.9279Z" fill="#E9E07A"/>
<path fill-rule="evenodd" clip-rule="evenodd" d="M55.2228 31.211C55.4663 31.632 56.0033 31.7761 56.4243 31.5318L64.0356 27.1372C64.4566 26.8955 64.6008 26.3576 64.3564 25.9375C64.1147 25.5165 63.5768 25.3724 63.1567 25.6167L55.5454 30.0113C55.1244 30.2547 54.9811 30.79 55.2228 31.211Z" fill="#E9E07A"/>
<path fill-rule="evenodd" clip-rule="evenodd" d="M27.5706 52.4304C27.2278 52.0868 26.6715 52.0885 26.3278 52.4304L23.8423 54.916C23.4986 55.2596 23.4995 55.8168 23.8431 56.1587C24.1859 56.5024 24.7414 56.5024 25.085 56.1587L27.5706 53.6732C27.9142 53.3313 27.9142 52.7732 27.5706 52.4304Z" fill="#E9E07A"/>
<path fill-rule="evenodd" clip-rule="evenodd" d="M48.789 24.7774C49.21 25.0191 49.747 24.8767 49.9905 24.4548L54.385 16.8435C54.6285 16.4225 54.4844 15.8846 54.0625 15.6429C53.6424 15.3994 53.1062 15.5436 52.8628 15.9637L48.4691 23.5768C48.2248 23.9978 48.3689 24.533 48.789 24.7774Z" fill="#E9E07A"/>
<path fill-rule="evenodd" clip-rule="evenodd" d="M35.4509 56.9787C34.9834 56.853 34.5017 57.1334 34.3743 57.6001L33.4646 60.9953C33.3389 61.4655 33.6193 61.9463 34.0878 62.072C34.5562 62.1994 35.037 61.9208 35.1627 61.4506L36.0723 58.0554C36.1998 57.5887 35.9212 57.1062 35.4509 56.9787Z" fill="#E9E07A"/>
<path fill-rule="evenodd" clip-rule="evenodd" d="M40.0001 22.4219C40.487 22.4219 40.8799 22.029 40.8808 21.543V12.7539C40.8808 12.2679 40.4879 11.875 40.0001 11.875C39.5158 11.875 39.1229 12.2679 39.1221 12.7539L39.123 21.543C39.123 22.029 39.5158 22.4219 40.0001 22.4219Z" fill="#E9E07A"/>
<path fill-rule="evenodd" clip-rule="evenodd" d="M45.627 57.6001C45.5031 57.1316 45.0215 56.853 44.5504 56.9787C44.0819 57.1044 43.8051 57.586 43.929 58.0554L44.8386 61.4506C44.9652 61.9208 45.4477 62.1977 45.9171 62.072C46.3864 61.9463 46.6633 61.4664 46.5367 60.9953L45.627 57.6001Z" fill="#E9E07A"/>
<path fill-rule="evenodd" clip-rule="evenodd" d="M30.0131 24.4539C30.2548 24.8749 30.7927 25.0191 31.2111 24.7765C31.633 24.533 31.778 23.9969 31.5345 23.575L27.14 15.9637C26.8974 15.5436 26.3595 15.3994 25.9376 15.6429C25.5184 15.8846 25.3743 16.4225 25.6168 16.8426L30.0131 24.4539Z" fill="#E9E07A"/>
<path fill-rule="evenodd" clip-rule="evenodd" d="M53.6743 52.4286C53.3333 52.0867 52.7761 52.0867 52.4316 52.4286C52.0879 52.7723 52.0905 53.3295 52.4316 53.6714L54.9171 56.1569C55.2616 56.5023 55.818 56.4988 56.1608 56.1569C56.5044 55.8133 56.5044 55.2596 56.1599 54.9142L53.6743 52.4286Z" fill="#E9E07A"/>
<path fill-rule="evenodd" clip-rule="evenodd" d="M15.9657 27.1372L23.5788 31.53C23.998 31.7734 24.5351 31.6293 24.7767 31.2109C25.0202 30.7891 24.8778 30.2529 24.4568 30.0095L16.8446 25.6149C16.4245 25.3706 15.8866 25.5156 15.6432 25.9375C15.4023 26.3567 15.5456 26.8938 15.9657 27.1372Z" fill="#E9E07A"/>
<path fill-rule="evenodd" clip-rule="evenodd" d="M57.6019 45.625L60.9971 46.5347C61.4674 46.6621 61.9481 46.38 62.0738 45.9115C62.2004 45.4431 61.9226 44.9623 61.4524 44.8366L58.0572 43.9269C57.5905 43.7995 57.1071 44.0781 56.9805 44.5483C56.854 45.0177 57.1352 45.4984 57.6019 45.625Z" fill="#E9E07A"/>
<path fill-rule="evenodd" clip-rule="evenodd" d="M22.4219 40C22.4228 39.5122 22.0308 39.1211 21.5447 39.1193L12.7539 39.1211C12.2688 39.1211 11.875 39.5122 11.875 40C11.8759 40.4843 12.2688 40.8789 12.7548 40.8789L21.5447 40.8771C22.029 40.8771 22.4228 40.4843 22.4219 40Z" fill="#E9E07A"/>
<path fill-rule="evenodd" clip-rule="evenodd" d="M58.057 36.0704L61.4522 35.1607C61.9224 35.035 62.1993 34.5516 62.0727 34.0823C61.9479 33.6156 61.4681 33.337 60.997 33.4627L57.6017 34.3723C57.1333 34.4963 56.8547 34.9797 56.9804 35.449C57.1043 35.9175 57.5886 36.1943 58.057 36.0704Z" fill="#E9E07A"/>
<path fill-rule="evenodd" clip-rule="evenodd" d="M24.7773 48.7891C24.5356 48.3672 23.9986 48.2222 23.5776 48.4647L15.9654 52.861C15.5453 53.1045 15.3994 53.6406 15.6429 54.0625C15.8863 54.4817 16.4242 54.6259 16.8443 54.3833L24.4557 49.987C24.8749 49.7453 25.0208 49.21 24.7773 48.7891Z" fill="#E9E07A"/>
<path fill-rule="evenodd" clip-rule="evenodd" d="M52.4311 27.5679C52.773 27.9133 53.3293 27.9098 53.6739 27.5679L56.1594 25.0824C56.5039 24.7387 56.5022 24.1832 56.1576 23.8396C55.8166 23.4959 55.2603 23.4959 54.9166 23.8396L52.4311 26.3251C52.0865 26.667 52.0883 27.2251 52.4311 27.5679Z" fill="#E9E07A"/>
<path fill-rule="evenodd" clip-rule="evenodd" d="M31.2108 55.2227C30.7898 54.9792 30.2545 55.1233 30.0111 55.5417L25.6165 63.1565C25.3748 63.5758 25.5155 64.1128 25.9373 64.3563C26.3583 64.5962 26.8954 64.4521 27.1388 64.0337L31.5316 56.4206C31.7742 56.0022 31.6327 55.4652 31.2108 55.2227Z" fill="#E9E07A"/>
<path fill-rule="evenodd" clip-rule="evenodd" d="M44.5512 23.0195C45.0179 23.147 45.4987 22.8648 45.6279 22.3981L46.5375 19.0029C46.6632 18.5327 46.3828 18.0502 45.9144 17.9263C45.4477 17.7988 44.9652 18.0774 44.8395 18.5477L43.9298 21.9429C43.8006 22.4096 44.0827 22.8921 44.5512 23.0195Z" fill="#E9E07A"/>
<path fill-rule="evenodd" clip-rule="evenodd" d="M40 57.5781C39.514 57.5764 39.1229 57.9692 39.1211 58.4553L39.1229 67.2479C39.1229 67.7304 39.5122 68.125 40 68.125C40.486 68.125 40.8789 67.7304 40.8798 67.2461L40.8771 58.4553C40.8771 57.971 40.4878 57.5781 40 57.5781Z" fill="#E9E07A"/>
<path fill-rule="evenodd" clip-rule="evenodd" d="M34.375 22.3981C34.4972 22.8666 34.9823 23.1452 35.4517 23.0195C35.9192 22.8956 36.1952 22.4122 36.0731 21.9429L35.1634 18.5477C35.0359 18.0774 34.5543 17.7988 34.085 17.9263C33.6183 18.052 33.3379 18.5318 33.4653 19.0029L34.375 22.3981Z" fill="#E9E07A"/>
<path fill-rule="evenodd" clip-rule="evenodd" d="M49.9871 55.5443C49.7454 55.125 49.211 54.9791 48.7891 55.2226C48.3682 55.4643 48.2258 56.0004 48.4666 56.4223L52.8646 64.0336C53.1063 64.4546 53.6407 64.6005 54.0626 64.3562C54.4836 64.1127 54.6268 63.5749 54.3851 63.1547L49.9871 55.5443Z" fill="#E9E07A"/>
<path fill-rule="evenodd" clip-rule="evenodd" d="M26.3266 27.5679C26.6667 27.9151 27.2257 27.9115 27.5693 27.5679C27.913 27.2277 27.9095 26.6714 27.5693 26.3251L25.0838 23.8396C24.7384 23.4959 24.1829 23.4977 23.8401 23.8413C23.4974 24.1832 23.4956 24.7387 23.841 25.0823L26.3266 27.5679Z" fill="#E9E07A"/>
<path fill-rule="evenodd" clip-rule="evenodd" d="M64.0365 52.861L56.4225 48.4682C56.0024 48.2265 55.4672 48.3672 55.2246 48.7908C54.9803 49.21 55.1262 49.7453 55.5445 49.9887L63.1594 54.3833C63.5786 54.625 64.1139 54.4843 64.3573 54.0625C64.599 53.6406 64.4549 53.1045 64.0365 52.861Z" fill="#E9E07A"/>
<path fill-rule="evenodd" clip-rule="evenodd" d="M22.3989 34.3733L19.0028 33.4627C18.5317 33.337 18.051 33.6174 17.9261 34.0859C17.7996 34.5526 18.0764 35.0351 18.5475 35.1625L21.9427 36.0704C22.4094 36.1988 22.8928 35.9175 23.0194 35.449C23.1469 34.9841 22.8656 34.5033 22.3989 34.3733Z" fill="#E9E07A"/>
<path fill-rule="evenodd" clip-rule="evenodd" d="M40 29.4549C39.514 29.4549 39.1211 29.8478 39.1211 30.3338C39.1211 30.8198 39.514 31.2127 40 31.2127C44.8533 31.2127 48.7891 35.1476 48.7891 40.0018C48.7891 40.4878 49.1819 40.8807 49.668 40.8807C50.154 40.8807 50.5469 40.4878 50.5469 40.0018C50.5469 34.1773 45.8245 29.4549 40 29.4549Z" fill="#E9E07A"/>
</svg>
